<?xml version="1.0" standalone="no"?>
<!DOCTYPE svg PUBLIC "-//W3C//DTD SVG 20010904//EN"
 "http://www.w3.org/TR/2001/REC-SVG-20010904/DTD/svg10.dtd">
<svg version="1.0" xmlns="http://www.w3.org/2000/svg"
 width="909.000000pt" height="909.000000pt" viewBox="0 0 909.000000 909.000000"
 preserveAspectRatio="xMidYMid meet">
<metadata>
Created by potrace 1.16, written by Peter Selinger 2001-2019
</metadata>
<g transform="translate(0.000000,909.000000) scale(0.100000,-0.100000)"
fill="#000000" stroke="none">
<path d="M0 4545 l0 -4545 4545 0 4545 0 0 4545 0 4545 -4545 0 -4545 0 0
-4545z m4875 4520 c414 -36 702 -91 1055 -203 923 -294 1738 -889 2307 -1682
400 -558 668 -1207 782 -1895 46 -272 56 -406 56 -745 0 -338 -10 -468 -56
-745 -136 -814 -508 -1607 -1043 -2220 -267 -306 -568 -570 -911 -800 -624
-418 -1285 -657 -2050 -742 -224 -25 -705 -25 -935 0 -888 98 -1672 418 -2355
961 -453 359 -815 780 -1112 1292 -250 430 -445 967 -532 1464 -110 634 -89
1270 65 1883 203 815 605 1527 1194 2117 219 218 497 444 740 600 533 341
1122 569 1715 665 384 61 752 78 1080 50z"/>
<path d="M3550 7979 c-316 -47 -563 -291 -626 -616 -29 -153 -14 -365 35 -507
12 -33 19 -61 16 -64 -2 -3 -24 1 -47 8 -158 45 -266 62 -408 63 -214 0 -362
-40 -508 -137 -218 -147 -342 -377 -342 -635 0 -214 95 -423 272 -599 232
-232 594 -352 1061 -352 59 0 107 -2 107 -5 0 -2 -20 -35 -45 -73 -164 -255
-248 -536 -249 -837 0 -168 13 -259 55 -385 16 -47 29 -90 29 -97 0 -6 -64
-55 -141 -109 -194 -132 -219 -156 -219 -206 0 -29 6 -45 26 -63 24 -23 35
-25 113 -24 47 0 174 6 281 13 l195 13 80 -52 c224 -145 408 -212 675 -245
235 -29 547 3 758 77 40 14 76 23 79 19 11 -11 23 -191 17 -266 -11 -139 24
-200 117 -200 60 0 104 33 119 91 12 44 -3 351 -20 428 -6 24 -9 45 -8 46 24
19 203 114 207 110 3 -3 8 -88 11 -188 3 -109 10 -190 17 -203 18 -32 58 -54
99 -54 29 0 44 8 75 39 l39 39 0 165 c0 103 -6 197 -15 252 l-16 88 91 88 c84
81 92 86 99 66 11 -28 28 -141 36 -232 12 -132 37 -165 126 -165 34 0 47 6 76
35 l36 36 -6 117 c-6 131 -25 236 -65 360 -26 83 -26 84 -8 115 11 18 41 70
67 116 l47 83 15 -28 c25 -49 55 -145 72 -229 8 -44 20 -103 26 -132 13 -67
52 -103 111 -103 34 0 47 7 79 39 45 45 47 61 24 192 -30 173 -95 351 -166
456 -16 23 -29 44 -29 47 0 3 23 16 51 30 173 88 374 272 483 444 78 124 148
306 177 462 19 101 16 338 -5 450 -21 109 -73 265 -118 354 -113 225 -305 435
-510 558 -81 48 -81 52 -43 198 34 131 95 248 163 316 95 94 234 147 340 129
37 -6 40 -9 46 -47 9 -54 74 -121 134 -137 173 -47 285 180 150 306 -28 26
-88 53 -119 53 -13 0 -54 11 -93 24 -135 46 -273 43 -406 -9 -222 -87 -399
-329 -454 -621 -9 -49 -17 -68 -27 -67 -8 1 -57 14 -109 28 -137 38 -376 45
-540 16 -63 -11 -117 -17 -120 -15 -3 3 -7 61 -9 130 -6 214 41 359 153 469
80 79 158 117 253 123 l71 5 21 -41 c40 -78 118 -115 198 -93 63 16 98 43 123
97 41 84 5 191 -79 233 -39 20 -84 23 -346 24 -157 0 -277 -54 -405 -183 -124
-125 -179 -228 -216 -411 -13 -65 -15 -113 -10 -228 3 -80 8 -162 12 -182 5
-31 3 -37 -15 -42 -23 -6 -23 -4 -42 88 -17 87 -90 307 -135 405 -74 162 -180
323 -291 441 -208 221 -499 335 -753 298z m211 -243 c216 -46 424 -234 572
-516 71 -136 127 -290 168 -467 l33 -142 -103 -103 c-109 -108 -198 -231 -254
-350 -40 -84 -85 -222 -94 -285 -3 -24 -9 -46 -13 -48 -17 -10 -349 300 -465
435 -208 241 -332 431 -399 611 -39 106 -66 241 -66 328 1 149 65 307 164 406
124 123 281 168 457 131z m1844 -1125 c178 -44 304 -100 434 -196 212 -156
351 -351 429 -604 24 -79 26 -100 26 -271 1 -228 -13 -293 -98 -470 -97 -202
-285 -374 -508 -463 -302 -122 -644 -114 -935 23 -207 97 -400 263 -494 425
-109 190 -152 347 -151 560 0 192 27 314 102 465 69 137 203 288 336 377 113
75 284 141 441 169 105 18 312 11 418 -15z m-2985 9 c106 -13 272 -58 408
-111 90 -36 107 -46 133 -83 177 -250 495 -586 767 -810 45 -37 82 -72 82 -76
0 -16 -188 -69 -386 -110 -172 -36 -330 -50 -546 -50 -353 0 -572 41 -783 147
-229 114 -386 346 -385 569 1 121 26 199 97 300 125 181 336 257 613 224z
m1140 -1515 c90 -282 198 -462 398 -662 210 -211 461 -343 767 -404 174 -34
438 -41 584 -14 l44 8 -32 -45 c-85 -119 -271 -278 -363 -312 -69 -25 -288
-39 -403 -26 -437 48 -792 248 -1092 615 -182 223 -313 560 -313 805 l0 66
118 17 c64 10 149 25 187 35 39 10 71 18 72 17 1 0 16 -45 33 -100z m-651
-990 c69 -162 164 -299 311 -445 79 -79 257 -213 337 -254 23 -11 30 -21 26
-32 -5 -13 -2 -15 13 -10 12 4 54 -8 104 -29 96 -39 83 -43 -54 -19 -138 24
-276 75 -394 146 -191 115 -288 237 -353 445 -30 97 -66 383 -40 318 5 -11 27
-65 50 -120z"/>
<path d="M4893 5831 c-94 -43 -130 -175 -69 -255 40 -53 82 -76 139 -76 55 0
90 16 128 57 39 42 49 66 49 122 0 41 -6 57 -32 92 -60 77 -132 97 -215 60z"/>
<path d="M6044 5791 c-92 -42 -129 -150 -82 -241 33 -64 85 -92 160 -87 72 4
124 42 152 111 18 41 18 52 8 92 -16 60 -47 100 -97 124 -51 25 -88 25 -141 1z"/>
<path d="M5391 5571 c-36 -36 -28 -82 27 -148 26 -32 51 -63 55 -70 4 -7 -15
-33 -49 -65 -73 -69 -90 -100 -73 -139 6 -17 20 -34 30 -39 38 -21 67 -11 129
47 l62 57 62 -67 c71 -77 92 -82 138 -37 40 41 34 72 -31 154 l-49 62 59 64
c61 67 72 97 45 132 -37 49 -88 39 -162 -33 l-41 -40 -54 68 c-47 59 -59 68
-91 71 -27 2 -43 -3 -57 -17z"/>
<path d="M2745 2456 c-262 -64 -407 -372 -291 -618 31 -66 112 -153 178 -191
141 -82 328 -73 479 23 73 47 79 65 79 229 0 133 -1 141 -24 168 l-24 28 -146
0 c-138 0 -147 -1 -168 -23 -16 -16 -23 -34 -23 -63 0 -34 6 -46 34 -71 29
-26 39 -29 85 -26 l51 3 3 -42 c3 -37 0 -44 -25 -56 -175 -90 -370 88 -312
284 28 93 114 153 219 153 55 0 74 -5 122 -33 45 -26 64 -31 88 -26 43 9 80
52 80 93 0 44 -21 74 -83 116 -88 60 -209 80 -322 52z"/>
<path d="M6574 2453 c-12 -2 -53 -36 -90 -76 -125 -130 -308 -337 -336 -379
-31 -46 -36 -94 -14 -137 28 -53 38 -56 210 -61 l161 -5 5 -75 c6 -87 11 -97
56 -116 67 -28 143 16 145 85 1 20 2 51 3 70 1 29 6 35 36 45 24 7 41 22 54
47 19 35 19 36 0 75 -14 28 -28 42 -51 49 l-33 9 -1 181 c0 112 -5 193 -12
214 -18 52 -76 84 -133 74z"/>
<path d="M3343 2230 c-22 -13 -34 -29 -38 -52 -3 -18 -5 -143 -3 -276 l3 -244
34 -30 c29 -26 39 -30 74 -25 25 3 50 16 66 31 25 26 26 30 29 181 l4 155 32
34 c24 26 43 36 81 42 106 15 140 112 61 176 -39 32 -129 18 -165 -26 -17 -21
-28 -20 -35 2 -8 22 -57 52 -88 52 -12 0 -37 -9 -55 -20z"/>
<path d="M3942 2231 c-68 -23 -137 -83 -175 -151 -27 -46 -32 -67 -35 -141 -4
-77 -1 -93 21 -142 32 -71 83 -126 149 -163 48 -26 62 -29 148 -29 89 0 99 2
158 34 111 60 173 160 173 279 0 77 -17 133 -61 198 -80 116 -237 164 -378
115z m158 -187 c70 -28 101 -115 65 -184 -31 -60 -129 -82 -183 -40 -38 30
-51 58 -52 109 0 68 49 121 122 130 4 1 26 -6 48 -15z"/>
<path d="M4524 2240 c-49 -19 -54 -42 -54 -235 0 -197 5 -228 49 -297 44 -70
108 -103 196 -103 61 0 78 4 128 33 l57 32 31 -35 c26 -29 38 -35 71 -35 32 0
47 7 74 34 l35 35 -3 260 c-3 259 -3 260 -27 285 -13 14 -39 28 -57 32 -41 8
-97 -18 -113 -52 -6 -15 -11 -82 -11 -168 0 -132 -2 -146 -23 -177 -26 -38
-84 -64 -122 -55 -15 4 -38 18 -51 31 -23 23 -24 29 -24 167 0 79 -5 160 -11
181 -17 61 -84 92 -145 67z"/>
<path d="M5277 2234 c-15 -8 -32 -26 -37 -40 -6 -14 -10 -179 -10 -379 l0
-354 31 -36 c25 -28 38 -35 68 -35 79 0 111 54 111 185 l0 86 28 -19 c97 -68
223 -49 322 48 70 69 100 136 100 227 0 91 -26 165 -82 227 -59 68 -126 99
-210 100 -61 0 -73 -3 -114 -33 l-47 -33 -21 25 c-40 48 -88 59 -139 31z m353
-203 c88 -61 66 -202 -36 -230 -94 -26 -180 65 -153 163 10 36 53 81 84 89 30
7 77 -2 105 -22z"/>
</g>
</svg>
